<svg xmlns="http://www.w3.org/2000/svg" viewBox="0 0 988.81 147.29"><path d="M823,50.08c-.83,3-1.65,5.89-2.48,8.77q-12.15,42-24.3,84a8,8,0,0,0-.41,1.39,1,1,0,0,1-1.17.94H769c-1.95,0-2,.48-2.66-2.1q-7.83-28.47-15.64-56.89c-.19-.68-.41-1.39-.6-2.07-.75.3-.71,1-.86,1.58Q741.4,114,733.48,142.26c-.9,3.22,0,2.85-3.75,2.85H706.51c-2,0-2,0-2.58-2q-13.17-45.57-26.37-91.09a3.37,3.37,0,0,1-.3-2.1h24.27c2.55,0,2.06-.27,2.7,2,1.35,5,2.62,10,3.9,15q6.18,23.79,12.41,47.63c.15.52.11,1.12.82,1.57,1.35-5,2.7-10,4.06-14.92q6.69-24.7,13.35-49.36c.52-2,.56-2,2.51-2h18.45c2,0,1.87-.45,2.55,2q7.94,29.76,15.9,59.55a15.8,15.8,0,0,0,1.61,5c1.73-6.6,3.42-12.86,5.07-19.13q6-22.73,12-45.49c.3-1.2.67-1.87,2.17-1.87,7.65.07,15.34,0,23,0C822.17,50,822.51,50,823,50.08ZM566.33,142.75V86a56.57,56.57,0,0,0-1.5-14c-3-12-10.46-19.58-22.5-22.66-8-2-16-1.83-24-.67a66.39,66.39,0,0,0-12.26,3,4.84,4.84,0,0,1-.3-2.7V2.64c0-2.89.15-2.51-2.59-2.51-6.71,0-13.43,0-20.1,0-3.38,0-3-.53-3,2.85V143.42c0,1.65,0,1.69,1.77,1.69h22c1.84,0,1.84,0,1.88-1.84V76.74c0-.56,0-1.12,0-1.68-.08-1,.33-1.54,1.38-1.88a44,44,0,0,1,7.2-1.61c4.77-.6,9.53-1,14.29-.23,6.15,1.09,10.09,5,11.37,11.07a27.06,27.06,0,0,1,.45,5.47V142c0,3.56-.45,3.07,3,3.11,6.64,0,13.24,0,19.87,0,.49,0,1,0,1.43,0,1.31.19,1.69-.49,1.57-1.65C566.29,143.23,566.33,143,566.33,142.75ZM269.73.13H249.14c-2.93,0-2.7-.45-2.7,2.66v140c0,2.47-.19,2.4,2.29,2.4H270c2.17,0,2.1.07,2.1-2.1V2.6C272.13-.06,272.43.13,269.73.13Zm674.85,0c-7,0-14.07,0-21.08,0-3.11,0-2.74-.45-2.74,2.85V142.71c0,2.62-.22,2.4,2.48,2.4h19.65c3.49,0,3.49,0,3.49-3.34V1.81C946.3.16,946.3.13,944.58.13ZM988.79,142V2.49c0-2.55.23-2.36-2.29-2.36H965.92c-3,0-2.74-.49-2.74,2.85V142.52c0,2.89-.19,2.63,2.51,2.63,6.64,0,13.24,0,19.88,0C989.28,145.11,988.79,145.67,988.79,142ZM229.68,3c0-.79-.08-1.58-.15-2.37-.57-.9-1.43-.45-2.14-.45q-10.41,0-20.81,0c-2.78,0-2.52-.41-2.52,2.55V142.07c0,.86.08,1.73.15,2.63h0c.53.93,1.43.45,2.14.45,6.79,0,13.54,0,20.33,0,3.41,0,3,.52,3-3.08ZM92.34,81.28a58.16,58.16,0,0,1-1.87,35c-5.36,14.4-15.94,23.29-30.42,27.82a75.55,75.55,0,0,1-23.36,3,104.35,104.35,0,0,1-34.24-5.89,4.31,4.31,0,0,1-1.91-.86h0c0-1.12,0-2.21,0-3.34V3.43C.58.43.43.58,3.43.58h22A4.13,4.13,0,0,0,23.12.35H3C.35.35.35.35.35,3.09v135a6.23,6.23,0,0,0,.15,2.36h0a.68.68,0,0,1-.49-.71V2.94C0-.36-.36.13,2.75.13Q13,.07,23.34.13c.71,0,1.58-.49,2.14.45,0,.86.11,1.76.11,2.62V52c.68.49,1.13,0,1.61-.22,14.67-5.7,29.22-5.36,43.32,1.65C82.11,59.15,89.23,68.79,92.34,81.28ZM67.63,93.81C67,84.88,63,77.94,54.88,73.86c-9.08-4.54-18.19-3.57-27.11.71a3.42,3.42,0,0,0-2.25,3.64c.15,7.08.07,14.17.07,21.26v21.75c0,1.88,0,1.91,1.84,2.4a39.46,39.46,0,0,0,19.39.75c10.12-2.17,16.84-8.25,19.69-18.3A35.67,35.67,0,0,0,67.63,93.81Zm608.28-7.28a52.39,52.39,0,0,1-2.55,30.79c-6.41,15.75-18.3,25.09-34.76,28.76a40.4,40.4,0,0,1-5.66.9c-2,.15-4,0-6,0a47.36,47.36,0,0,1-21.19-4c-12.33-5.4-20.92-14.48-25.35-27.15a53.44,53.44,0,0,1,.27-37.24c6.15-16.32,18.18-26,35.1-29.56,12-2.47,23.7-1.35,34.76,4.09C664.51,60.05,672.84,71.38,675.91,86.53ZM649.7,88.11c-2.36-9.27-9.3-16.73-20-17.85-8.66-.9-17.62,2.7-22.35,10.83a32.15,32.15,0,0,0-4.12,15.38,36.75,36.75,0,0,0,1.91,12.86c3.37,9.6,11.44,15.53,21.26,15.72,10.5.18,18.68-5.25,22.39-15.08A35.75,35.75,0,0,0,649.7,88.11ZM909.25,103c0,1.09-.26,1.65-1.46,1.54a11.92,11.92,0,0,0-1.69,0h-57c-2.81,0-2.92-.34-2.13,2.7,1.87,7.16,6.56,11.85,13.09,14.93a34.25,34.25,0,0,0,15.11,3,58.78,58.78,0,0,0,29.7-7.76,1.37,1.37,0,0,1,1.35-.26c0,6.64,0,13.24,0,19.87a2.61,2.61,0,0,1-1.54,2.44,49.87,49.87,0,0,1-16,6.11,78.26,78.26,0,0,1-23.1,1.35c-11.59-.93-22.09-4.68-30.64-13a42.66,42.66,0,0,1-12.18-22.58c-2.55-12.64-1.84-25.09,3.45-37,6.67-15,18.37-23.67,34.65-26a51.33,51.33,0,0,1,20.17,1c11.67,2.93,19.73,10,24.27,21.08a54.94,54.94,0,0,1,3.75,18.64C909.36,93.77,909.18,98.42,909.25,103Zm-24-15.3a29.46,29.46,0,0,0-2-8.81,15,15,0,0,0-10.8-9.3C858.73,66.51,848.8,75.77,847,89a1.77,1.77,0,0,0,1.16.22h35.59C884.91,89.34,885.36,89,885.25,87.73ZM192.59,92.12c.11,3.52,0,7,0,10.54,0,1.87,0,1.87-2,1.91H132.62a5.57,5.57,0,0,0-2.77.3,18.1,18.1,0,0,0,2.36,7.35c3.3,5.89,8.55,9.34,14.81,11.4,6,2,12.12,1.84,18.23,1.24a56.49,56.49,0,0,0,22.8-7.35,5.68,5.68,0,0,1,.86-.41c.08,0,.15,0,.26,0,.49.42.3,1,.3,1.5,0,6-.07,12,0,17.93a3.24,3.24,0,0,1-1.91,3.19,54.06,54.06,0,0,1-18.19,6.33,81,81,0,0,1-19.8.9,51,51,0,0,1-24.79-7.8,40.64,40.64,0,0,1-17.33-22.76,59,59,0,0,1,1.65-40.95c6.46-15.64,18.34-24.68,35.14-27.08a51.14,51.14,0,0,1,20.89,1.2c12,3.26,19.92,10.91,24.12,22.54C191.65,78.62,192.4,85.33,192.59,92.12Zm-24-4.28a28.49,28.49,0,0,0-2.33-9.67,14.38,14.38,0,0,0-7.42-7.46c-6.9-2.82-13.62-2.37-19.69,2.13-5.36,4-7.69,9.75-9,16.39h35.74c.49,0,1,0,1.43,0C168.29,89.31,168.66,88.89,168.55,87.84Z" fill="#384f5f"/><path d="M380.36,7.33a60.47,60.47,0,0,1,24.19,6c20.29,9.86,32.59,25.91,37.09,48,.37,1.8.49,3.64.71,5.44.11.75.49,1.8-.19,2.18-.9.52-1.53-.49-2.13-1a10.07,10.07,0,0,0-5.52-2.55,63.52,63.52,0,0,1-8.77-2,2.6,2.6,0,0,1-.68-.23l-1.57-.56c-1.13-.38-2.18-.86-3.3-1.24l-.6-.22a10.4,10.4,0,0,0-1.17-.53c-1.53-.79-3.07-1.54-4.61-2.29a95.81,95.81,0,0,1-9-6.22c-2.4-2.22-4.68-4.47-6.86-6.87-1.57-2.28-3.6-4.23-4.8-6.78-.15-.38-.26-.79-.41-1.2a2.94,2.94,0,0,1-.26-.6,1.65,1.65,0,0,1-.15-1,1.18,1.18,0,0,1,.45-.52c2.17-1,4.53-.57,6.82-.72,7.84-.52,15.41,1.2,23.18,3a10.35,10.35,0,0,0-1.35-2.51,6.13,6.13,0,0,1-.42-.53c-.15-.15-.3-.33-.45-.48l-.22-.23-.45-.45c-.79-.82-1.61-1.61-2.4-2.44l-.45-.45-.45-.45-.23-.22-.45-.45a16.57,16.57,0,0,0-2.62-2.18c-.79-.67-1.69-1.23-2.48-1.91a39.15,39.15,0,0,0-3.67-2.4,29.94,29.94,0,0,0-3.34-1.91A31.78,31.78,0,0,0,399,18.69c-.19-.07-.38-.19-.57-.26-.37-.19-.78-.3-1.16-.45a29,29,0,0,0-3.6-1.28c-.22-.07-.41-.11-.6-.18a10.49,10.49,0,0,0-1.61-.38c-1.8-.49-3.64-.82-5.44-1.16-.45-.08-1.13-.15-1.28-.53C383.73,11.94,381.45,10,380.36,7.33Z" fill="#0079af"/><path d="M309.56,69.54a55.8,55.8,0,0,1,4.57-21.11C323.88,25.74,341,12.24,365.36,7.89a24.15,24.15,0,0,1,6.41-.56c-1.39,2.43-3.22,4.57-4.57,7-.49.86-1.73.64-2.63,1a60.5,60.5,0,0,0-21.34,8.77,9.46,9.46,0,0,1-.82.53l-.57.33c-.18.12-.33.23-.52.34s-.19.11-.26.19a44.63,44.63,0,0,0-4.88,4c-.94.9-1.84,1.8-2.74,2.74l-.45.45-.22.22-.45.45-.23.23c-1.38,1.16-2.28,2.74-3.52,4.05-.6.86-1.28,1.65-1.84,2.55a3.82,3.82,0,0,1-.34.49c-.07.07-.11.15-.18.22a8.48,8.48,0,0,0-.49.79,5.09,5.09,0,0,1-.3.56A29,29,0,0,0,323.84,45c-.3.52-.6,1.05-.93,1.54-.15.22-.3.45-.45.71a5.4,5.4,0,0,0-.27.49,6.65,6.65,0,0,0-.26.75,3,3,0,0,1-.19.52l-.33.79a3.58,3.58,0,0,1-.27.56c-.52,1-.82,2.18-1.23,3.26-.72,2.1-1.28,4.24-1.8,6.38-.45,1.5-.53,3.08-1.05,4.58C314.54,66.28,312,67.86,309.56,69.54Z" fill="#0079af"/><path d="M371.73,140.27A63.11,63.11,0,0,1,340,130.18c-16.62-10.76-26.55-26-29.89-45.49a27.71,27.71,0,0,1-.6-6.63c1.42-.12,2,1.12,2.81,1.83,1.05.87,2.29,1.39,3.34,2.18,1.5.9,1.54,2.47,1.84,3.94a5.37,5.37,0,0,1,.15.67,10.54,10.54,0,0,0,.41,1.61c1.8,4.92,2.92,10.09,5.85,14.55.11.19.19.38.3.57s.26.56.41.82.45.68.64,1,.37.49.56.75c2.89,4.77,6.79,8.71,10.76,12.57l.45.45.45.45.23.22a8.9,8.9,0,0,0,1.61,1,59.71,59.71,0,0,0,26,11.67,7.9,7.9,0,0,1,1.61.45C368.36,135.43,370.53,137.53,371.73,140.27Z" fill="#0079af"/><path d="M442.35,79.52A65.77,65.77,0,0,1,390.15,139a69.89,69.89,0,0,1-9.68,1.28c-.45-.49-.19-.9.15-1.24a23.12,23.12,0,0,0,3.9-5.66,7.13,7.13,0,0,1,3.53-1.35,59.86,59.86,0,0,0,30.79-16.8,51.15,51.15,0,0,0,6.56-8.18,3.54,3.54,0,0,1,.37-.52c.08-.08.12-.15.19-.23l.34-.45c.11-.15.19-.3.3-.45a2.85,2.85,0,0,1,.34-.41c0-.08.11-.11.15-.19a5.33,5.33,0,0,0,.41-.6l.22-.45.23-.45.22-.45.23-.45c.07-.15.15-.3.22-.49s.15-.3.23-.48.15-.3.22-.49l.23-.45.22-.45c.12-.23.23-.45.34-.71l.23-.53c.11-.26.22-.56.33-.82s.19-.42.27-.6a57.85,57.85,0,0,0,3.67-12.19,4.77,4.77,0,0,1,1.31-3c1.8-1.13,3.83-1.92,5.22-3.64.3-.38.75-.75,1.24-.45S442.46,79,442.35,79.52Z" fill="#0079af"/><path d="M406.31,66.17c-11-4-18.56-11.44-22.54-22.47.15-1.2.86-1,1.76-.78,7.36,1.42,12.87,5.58,17.56,11.21,2.47,3,2.73,6.71,4.08,10.09A1.47,1.47,0,0,1,406.31,66.17Z" fill="#abe0f7"/><path d="M345.48,81.47c2.29.26,4.17,1.54,6.08,2.62a36.27,36.27,0,0,1,16.69,19.47,6.65,6.65,0,0,1,.22.93c-2.66.6-5.06-.45-7.31-1.42a22.55,22.55,0,0,1-9.64-7.39,49.12,49.12,0,0,1-5.21-8.7C345.48,85.22,344.88,83.42,345.48,81.47Z" fill="#abe0f7"/><path d="M345.48,81.47c.23,1.09.94,2.1.6,3.3a1.88,1.88,0,0,0,.3,1.12c1.73,3,2.48,6.53,5.33,8.82a1.35,1.35,0,0,1,.49.52c1.57,3.6,4.95,5.14,8.13,6.83a17.22,17.22,0,0,0,6.79,2,6,6,0,0,1,1.35.45,10.1,10.1,0,0,1,1.46,4.8A41.16,41.16,0,0,1,355,104.53c-1.31-.56-1.91-1.84-2.81-2.81a84.89,84.89,0,0,0-7.43-6.9,4,4,0,0,1-1.54-1.73c-1.31-3.67-2.62-7.38-2.89-11.36-.07-.94-1.27-1.2-1.08-2.21a7.92,7.92,0,0,1,3.82,1c.38.45,1.05.08,1.43.49h0c.26.3.67.23,1,.49Z" fill="#98daf6"/><path d="M371.32,31.7a27.34,27.34,0,0,1-1.91,8.63c-2.44,1.61-5.25,2.47-7.8,3.9a43.33,43.33,0,0,0-8.74,6.86C348.75,55,346.08,59.83,344,65a4,4,0,0,1-1.39,2.17,17.25,17.25,0,0,1-5.28,1.39c2.7-4.54,3.75-9.9,7.24-14a7.23,7.23,0,0,0,.9-1.95,4.29,4.29,0,0,1,1.5-1.8c3.07-2.14,5.25-5.17,7.72-7.87.86-1.05,1.43-2.37,2.63-3.19,3.48-1.73,6.9-3.6,10.65-4.65a2.84,2.84,0,0,0,2.21-1.91C370.31,32.57,370.27,31.63,371.32,31.7Z" fill="#86d4f4"/><path d="M406.31,66.17c.94-1.35.23-2.63-.3-3.83a11.72,11.72,0,0,1-1.24-4.05c-.07-1.39-1.08-2.47-2-3.45-2.33-2.59-4.5-5.29-7.5-7.2a22.2,22.2,0,0,0-7.47-3.45,7.85,7.85,0,0,1-2.92-.86c-.68-.49-.75.34-1.13.37A16.43,16.43,0,0,1,381.9,38c2,1.08,4.12,1.35,6.26,1.83a20.33,20.33,0,0,1,10.16,5.29c2.22,2.18,4.39,4.39,6.6,6.56,0,.08,0,.19.12.19,4.31,2.74,5.43,7.24,6.33,11.78.3,1.54.79,3,1.17,4.46A22.2,22.2,0,0,1,406.31,66.17Z" fill="#9adaf6"/><path d="M412.05,79.59a7.67,7.67,0,0,1,2.89-.52c-1.28,1.42-1.32,3.37-1.95,5.06a89.89,89.89,0,0,1-4.69,9.49,7.37,7.37,0,0,1-2.36,2.29,52,52,0,0,0-8.67,8.81,4.74,4.74,0,0,1-2,1.65c-3.68,1.69-7.24,3.68-11.11,4.88-.9.26-1.76.82-2.73.37a8,8,0,0,1,.93-3.83c.27-1.57,1.69-1.83,2.82-2.13a30.13,30.13,0,0,0,11.66-6.72,39.79,39.79,0,0,0,11.93-16.87A4.09,4.09,0,0,1,410.66,80h0C411,79.63,411.64,80,412.05,79.59Z" fill="#87d5f4"/><path d="M410.59,80c-1.2,1.32-1.39,3.12-2.22,4.58-1.5,2.59-2.85,5.21-4.31,7.84a7.2,7.2,0,0,1-1.12,1.23,80.2,80.2,0,0,1-8.67,8.14,28.4,28.4,0,0,1-8.59,4.35c-1.12.34-2.62.3-3.33,1.65a12.34,12.34,0,0,1,1.91-5.29c3.67-2.13,7.8-3.63,10.76-6.93,3.23-3.6,6.94-6.79,8.7-11.52a4.38,4.38,0,0,1,2.59-2.62h0c.26-.26.71-.15,1-.45A7.8,7.8,0,0,1,410.59,80Z" fill="#98daf6"/><path d="M406.27,81.47a33.35,33.35,0,0,0-2.28,3.6,29.8,29.8,0,0,1-5.7,7.84c-2,2-4,4-6.12,5.88a6.78,6.78,0,0,1-2.77,1.73c-1.84.45-3.19,2.1-5.18,2a26.52,26.52,0,0,1,4.91-8.85A38.85,38.85,0,0,1,404,82.18,4.13,4.13,0,0,1,406.27,81.47Z" fill="#ace0f7"/><path d="M342.59,67.14a42.65,42.65,0,0,1,6.49-12.79A59.74,59.74,0,0,1,356,47.23c2.55-2.36,5.74-3.56,8.59-5.4a11.73,11.73,0,0,1,4.84-1.54,5,5,0,0,1-.94,2.89c-.6,3-3.41,3.45-5.51,4.65-4.35,2.47-8.14,5.51-10.73,9.86-1.27,2.18-3.22,3.94-3.94,6.53-.3,1-1.57,1.24-2.36,1.91A7.79,7.79,0,0,1,342.59,67.14Z" fill="#96d9f6"/><path d="M309.56,69.54a14,14,0,0,1,7.12-4.87c1.5-1,3.34-.86,5-1.28a19.27,19.27,0,0,0,3.3-.86c.19-.07.41-.11.64-.19a6.93,6.93,0,0,0,1.5-.33,2.49,2.49,0,0,1,.6-.19,6.79,6.79,0,0,0,1.16-.45,26.27,26.27,0,0,1,3.41-1.28.9.9,0,0,1,.9.49c.49,2.74-.75,5.06-1.69,7.46-.56,1.47-2.06,1.5-3.37,1.69-1.09.15-2.18-.26-3.26.23-4.5.22-9,.6-13.5.45C310.68,70.41,309.67,70.86,309.56,69.54Z" fill="#54c8ed"/><path d="M345.93,66.13a3.24,3.24,0,0,1,1.32-1.35,1.52,1.52,0,0,0,.75-.9c.93-3.79,3.56-6.64,5.88-9.45s5.25-5.7,9-7.09c1.2-.45,2-1.8,3.56-1.61.42,0,.72-.56,1-1s.45-1.2,1.05-1.53c-.38,2.51-1.76,4.61-3,6.71a38.17,38.17,0,0,1-19.09,16.2Z" fill="#aadff7"/><path d="M364.53,14.9a1.68,1.68,0,0,1,1.32-.41c.86,0,1.27-.45,1.53-1.2a13.64,13.64,0,0,1,4.39-5.93c.75.23.6.87.6,1.39,0,5.29-.07,10.58-.15,15.87a18.31,18.31,0,0,1-.41,2.81c-1.24,2.4-5.85,3.9-8.51,2.7a1.23,1.23,0,0,1-.42-1,6.55,6.55,0,0,1,.45-1.61c.15-.37.34-.79.53-1.16s.34-1,.49-1.46.3-1,.45-1.54c.26-.83.18-1.73.41-2.59.19-.64.34-1.27.49-1.95a11,11,0,0,0,.33-1.57C366.56,15.84,365.25,15.54,364.53,14.9Z" fill="#55c8ed"/><path d="M442.35,79.52c-.19-.34,0-.79-.45-1.13A11.71,11.71,0,0,1,436,82.52c-1.16,1.16-2.74,1-4.12,1.27-.79.19-1.62.19-2.37.45a19.5,19.5,0,0,0-1.91.45c-.19.08-.41.12-.6.19-.41.11-.82.26-1.24.41-.93.3-1.91.64-2.85,1s-1.65.6-2.47.11c-1-2.29.07-6,2.06-7,0,0,.15,0,.11,0-.37-1.24-.37-1.24.79-1.39s2.36.27,3.49-.22a108.39,108.39,0,0,1,14-.45C442.76,77.23,442.76,77.31,442.35,79.52Z" fill="#56c9ee"/><path d="M384.75,133.67a12,12,0,0,1-3.94,5.81,1.05,1.05,0,0,0-.34.83c-.56.07-1-.11-1-.71.11-5.63-.45-11.29.45-16.92.56-3.3.56-3.33,4.08-4.05,1.47-.3,2.85-1.12,4.43-.48a1,1,0,0,1,.41.93c-.15.94-.64,1.73-.86,2.63a18.47,18.47,0,0,0-.94,3.15c-.11.41-.22.82-.34,1.24a3.92,3.92,0,0,1-.22.93c-.19.6-.3,1.24-.45,1.84a8.52,8.52,0,0,0-.3,1.91,2.3,2.3,0,0,1-.11.68A6.69,6.69,0,0,1,384.75,133.67Z" fill="#54c8ed"/><path d="M315.29,82.41a21.77,21.77,0,0,1-5.73-4.35c.18-1.28,1.16-.83,1.87-.83a94.44,94.44,0,0,1,13.46.45,1.25,1.25,0,0,0,.9.23c1.39,0,3.45-.45,3.9.86.72,2.17,1.77,4.65.19,7-2.66.41-4.95-1.16-7.46-1.46C320,83.64,317.43,83.79,315.29,82.41Z" fill="#56c9ee"/><path d="M425,62.76c3.23.52,6.3,1.61,9.57,1.95a9.67,9.67,0,0,1,4.84,1.87,27.39,27.39,0,0,1,2.51,2.25c.56-.71.11-1.46.41-2.1,0,.08.11.11.11.19.64,3.37.53,3.45-2.81,3.49-4.09.07-8.18-.3-12.26-.49-1.2-.45-3.23.19-3.3-1.88C424,66.28,422.62,64.14,425,62.76Z" fill="#55c8ed"/><path d="M371.73,140.27a6.29,6.29,0,0,0-.9-1.09,12.68,12.68,0,0,1-3.86-6c-1.05-1.53-.9-3.41-1.35-5.1a37.53,37.53,0,0,0-1-3.93,4.62,4.62,0,0,1-.3-2.59,1.34,1.34,0,0,1,.22-.41c1.84-1.65,3.75-.12,5.59.11,1.24.15,1.91,1.69,1.91,3.19,0,1-.3,2,.23,3,.26,4-.15,8,.3,11.92A.77.77,0,0,1,371.73,140.27Z" fill="#54c8ed"/><path d="M380.36,7.33c1.8,1.95,3.79,3.75,4.42,6.48.15.72.83.6,1.32.75,0,1.13-.6,2.22,0,3.34.19.75.22,1.5.45,2.22s.26,1.27.45,1.91a4.57,4.57,0,0,1,.22,1,8.87,8.87,0,0,1,.23,1.43,1.16,1.16,0,0,1-.64.9,11.2,11.2,0,0,1-3.3.3,3.19,3.19,0,0,1-3.56-2.14c-.83-5-.34-10.09-.45-15.15C379.46,7.81,379.57,7.29,380.36,7.33Z" fill="#55c8ed"/><path d="M363.18,29.79a4.9,4.9,0,0,0,4.5-.34c1.35-.71,3.15-.48,4.13-2a11.29,11.29,0,0,1-.49,4.31c-.52,2.74-2.29,3.68-4.95,4.5a41.94,41.94,0,0,0-9,4.09c-.6-1,.3-1.65.64-2.44.71-.94,1.23-2,1.87-3a13.44,13.44,0,0,0,.9-1.61c.19-.38.38-.72.56-1.09.08-.19.19-.38.27-.53C362.21,31.1,361.91,29.83,363.18,29.79Z" fill="#6ccdf0"/><path d="M339.22,79.56c1.5.45,1.69,1.76,1.84,3,0,.38-.27.87-.12,1.17,1.2,2.47.9,5.47,2.44,7.83a1.29,1.29,0,0,1,.11,1.5.87.87,0,0,1-1.08,0c-2.4-1.61-5.07-2.77-7.28-4.69-.22-3.3-1.12-6.48-1.16-9.82A12.54,12.54,0,0,1,339.22,79.56Z" fill="#80d2f3"/><path d="M412.54,68.08c-.53-.64-1.47-.94-1.47-2a17.36,17.36,0,0,0-.82-4.58c-.34-1.2-.19-2.55-1.39-3.38a.5.5,0,0,1-.15-.15c1.2-2.77-2-3-2.74-4.72-.22-.56-1-.83-1.05-1.54L414,58c1.8,1.76,1.72,4.2,2.17,6.42a10.44,10.44,0,0,0,1.65,4.68C416,69.17,414.26,68.46,412.54,68.08Z" fill="#85d4f4"/><path d="M324.86,70c.71-.75,1.61-.41,2.43-.45,2.85-.11,2.74-.56,4-3.07,1-2,.75-4.13,1.65-6,1.95-1.8,3.94-3.45,6.79-3.38-.37,3.45-2.32,6.38-3.15,9.68a2.72,2.72,0,0,1-2.7,2.32A34.47,34.47,0,0,1,324.86,70Z" fill="#6acdf0"/><path d="M380,23.57c2,2.25,4.72,1.2,7.16,1.42a1.05,1.05,0,0,1,.75.49c.22.45.37.94.56,1.42s.3.94.49,1.39c.26.64.64,1.28.94,1.91.07.19.15.42.22.64a2.48,2.48,0,0,1,.15,1.05l-.11.34a1.42,1.42,0,0,1-.68.37c-2.51.12-4.91-1-7.42-.86-1.69,0-1.05-1.61-1.58-2.44A17.31,17.31,0,0,1,380,23.57Z" fill="#62cbef"/><path d="M372.26,127.45c-.79-.72-.41-1.62-.45-2.48a2.25,2.25,0,0,0-.83-2.06,6.4,6.4,0,0,0-2.55-1.24,6.93,6.93,0,0,1-2-.56c-.9-.49-1.28.11-1.76.6a1.1,1.1,0,0,1-.83-.56c-.37-.83-.71-1.69-1.09-2.48-.15-1.46-2-2.59-.82-4.31,2,.15,4,.49,6.11.64a3.69,3.69,0,0,1,3.34,1.91A40,40,0,0,1,372.26,127.45Z" fill="#66ccef"/><path d="M355,104c1.58.67,3.11,1.42,4.73,2.06,2.43,1,4.83,2.21,7.65,1.8,1.16-.19,1.83.75,2.58,1.39a7.93,7.93,0,0,1,.9,3.82,52.15,52.15,0,0,1-11.66-2.43C357.48,108.62,355.46,106.82,355,104Z" fill="#8ad6f4"/><path d="M380.43,29.3c.94,1.92.94,1.95,3.08,1.92a8.05,8.05,0,0,1,3.67.6,6.47,6.47,0,0,0,2.78.41,1.21,1.21,0,0,1,.82.45c.6,1.09,1.47,2.06,1.58,3.37h0c.34.23.26.68.53,1h0a.84.84,0,0,1,.07,1c-1.13.67-2.14,0-3.23-.23-2-.33-4.05-.75-6.11-1.05a2.46,2.46,0,0,1-2.29-1.72A16,16,0,0,1,380.43,29.3Z" fill="#7bd1f2"/><path d="M388.53,118.33a24.69,24.69,0,0,0-6.52,1.54,1.31,1.31,0,0,1-1.43-.22c-.45,1,.27,2.21-.67,3a15.49,15.49,0,0,1,.49-5.29c.11-2.36,1.27-3.53,3.71-3.94a38.78,38.78,0,0,0,7.61-2.44c1.09,2-.94,3.27-1.31,4.92C389.85,116.76,389.7,118,388.53,118.33Z" fill="#68ccf0"/><path d="M381.33,35.08c.53.19.68.82,1.32.94q5.18.9,10.35,1.87c.15-.15.26-.11.34,0a31.86,31.86,0,0,0,3.71,5.44,6.32,6.32,0,0,1,1.2,1.72c-1.88-.79-3.53-2-5.33-3a27.23,27.23,0,0,0-8.29-2.44A4,4,0,0,1,381.86,38,6,6,0,0,1,381.33,35.08Z" fill="#8cd6f5"/><path d="M392,111.21c-2.55,1.91-5.7,2.4-8.62,3.15-1.58.41-2.44.86-2.55,2.51,0,.19-.27.38-.42.56a15,15,0,0,1,1-5.73c4.31-1.58,8.7-3,12.64-5.56a2.28,2.28,0,0,1,1.39-.15A7,7,0,0,1,392,111.21Z" fill="#77d0f2"/><path d="M426.9,77.68c-.86.83-1.95.34-2.93.45-.67.08-.67,0-.93,1.13,0,.07,0,.18,0,.22-2.58.9-1.65,3.56-2.58,5.25-.34.56,0,1,.18,1.54.12.11.19.22.15.34s0,.18-.07.18a2.55,2.55,0,0,1-.53.38c-.41.15-.78.34-1.16.52-1.57.49-2.77,2-4.65,1.54a1.31,1.31,0,0,1-.34-1.87,42.25,42.25,0,0,0,2.48-7.09c.3-1,1-1.28,1.72-1.73A32,32,0,0,1,426.9,77.68Z" fill="#69cdf0"/><path d="M418.24,78.54c-1.39,1-1.35,2.78-1.88,4.2a29.73,29.73,0,0,1-1.91,4.88,1.4,1.4,0,0,0,0,1.57,1.11,1.11,0,0,0-.08.34,3.87,3.87,0,0,1-.37.56c-1.5,1.32-3.34,2.14-4.91,3.38a1,1,0,0,1-1.32.07c.23-.6.27-1.35.64-1.76,2.21-2.4,2.63-5.7,4.28-8.36A3.69,3.69,0,0,0,413,82a3.82,3.82,0,0,1,1.91-3A7.34,7.34,0,0,1,418.24,78.54Z" fill="#79d0f2"/><path d="M334,69.06a3.34,3.34,0,0,0,2.1-2.25A73.21,73.21,0,0,1,339.71,57c1.61-2.1,3.45-3.9,6.22-4.35,0,1.46-.93,2.51-1.76,3.48-1.69,2-2.44,4.39-3.45,6.68-.56,1.28-1.05,2.63-1.54,3.94-.34.9-1.27,1.16-1.84,1.8A8.65,8.65,0,0,1,334,69.06Z" fill="#7bd1f2"/><path d="M334,78.58c.94.9.34,2.21.86,3.3a7.88,7.88,0,0,1,.41,5.1,2.08,2.08,0,0,0,.15,1.16c-2.4.34-4.16-.86-5.73-2.43.82-2.18-.34-4.32-.19-6.45,0-.64-.64-.53-1-.79-1.13-.71-2.55.19-3.6-.79a21.69,21.69,0,0,1,6.22.49c.9.56,2-.11,2.89.41Z" fill="#69cdf0"/><path d="M417.79,69.06c-.34-.57-1-.42-1.5-.57s-.68-.41-.6-.86c.41-3.37-1-6.45-1.73-9.64a26.57,26.57,0,0,1,4.8,2.4c.23.38.68.3,1,.53h0a28.89,28.89,0,0,1,.53,4.46,6,6,0,0,0,1.31,4.2A9.44,9.44,0,0,1,417.79,69.06Z" fill="#74cff1"/><path d="M359.32,110.23a17.56,17.56,0,0,1,3.38.83,15.59,15.59,0,0,0,5.55,1,4,4,0,0,1,2.58,1c.68,1.2.49,2.52.53,3.83a7.6,7.6,0,0,0-4.88-1.39,10.12,10.12,0,0,1-4.8-1A4.23,4.23,0,0,1,359.32,110.23Z" fill="#79d0f2"/><path d="M421.61,69.51c-.34-.57-1-.38-1.46-.57a.76.76,0,0,1-.56-1.08,8.39,8.39,0,0,0-.15-4.58,2.91,2.91,0,0,1,.33-2.44,11.63,11.63,0,0,1,3.79,1.43c.34.56,1.05.15,1.46.52h0c-1.24,1.92-.52,3.9-.19,5.85a1.16,1.16,0,0,0,1.28.87c.49,0,1,0,1.27.45A17.92,17.92,0,0,1,421.61,69.51Z" fill="#64cbef"/><path d="M334,78.58c-1-.11-2,.38-2.89-.45C332.06,78.21,333.11,77.87,334,78.58Z" fill="#80d2f3"/><path d="M412.05,79.59c-.38.53-.9.45-1.43.45C411,79.52,411.49,79.59,412.05,79.59Z" fill="#98daf6"/><path d="M344.51,81c-.53,0-1.09.07-1.43-.49C343.61,80.53,344.13,80.46,344.51,81Z" fill="#abe0f7"/><path d="M345.48,81.47a1,1,0,0,1-1-.45A1,1,0,0,1,345.48,81.47Z" fill="#abe0f7"/><path d="M407.25,81a1,1,0,0,1-1,.45A1,1,0,0,1,407.25,81Z" fill="#ace0f7"/><path d="M392.32,36.05a8,8,0,0,1-1.87-3.37.74.74,0,0,1,.07-1.09c10.28-.22,20.55-.34,30.6,2.51,1.54.68,1.5,2.55,2.63,3.53.22.22.07.6-.19.82a.62.62,0,0,1-.86.08c-2.89-1.61-6.08-1.8-9.26-2.06a3.56,3.56,0,0,1-.94-.12,18.09,18.09,0,0,0-10.13-1,2.4,2.4,0,0,1-1.38,0,1.14,1.14,0,0,0-.45-.15C397.8,35.38,395,34.63,392.32,36.05Z" fill="#007fb3"/><path d="M421.16,34.1c-1.16,1-2.21-.15-3.3-.3a5.82,5.82,0,0,0-2.29-.22,5,5,0,0,1-2.32-.26,31,31,0,0,0-7.46-1.09c-4.17-.19-8.37,0-12.53,0a5.07,5.07,0,0,1-2.78-.49c-.15.23-.33.23-.48,0h0c-.27-.26-.19-.67-.45-.93a.79.79,0,0,1-.08-.42c0-1.31,1.09-1.2,1.88-1.27,7-.9,13.91,0,20.89.19a34.48,34.48,0,0,1,5.1,1.05,10.39,10.39,0,0,1,2.88,2.88,5.66,5.66,0,0,0,.49.49h0A5.4,5.4,0,0,0,421.16,34.1Z" fill="#0083b6"/><path d="M417.3,30.28c-.23.41-.53,1-1.05.71-2.48-1.35-5.18-1.2-7.84-1.2-3.56,0-7.09-.67-10.69-.52-2.28.07-4.5.9-6.82.41a1.36,1.36,0,0,0-1.43.67,3.38,3.38,0,0,1-.9-2c-.49-1.39.64-1.54,1.39-1.54,4.35.11,8.66-.9,13.09-.41,3.45.37,6.94.93,10.42.52a5.87,5.87,0,0,1,2.89,2.4,5.66,5.66,0,0,0,.49.49h0a4.77,4.77,0,0,1,.45.45Z" fill="#008aba"/><path d="M388.08,26.94c-.48-.37-.45-.9-.48-1.42-.68-1.84.63-1.84,1.87-2.14,5.89-1.35,11.89-.71,17.82-.79A11,11,0,0,1,411.11,25c-.41,1.54-1.76,1.16-2.74,1.16-4.68.11-9.41,0-14.1,0A22.72,22.72,0,0,0,388.08,26.94Z" fill="#0095c5"/><path d="M388.08,26.94c.75-1.61,2.33-1.39,3.64-1.42,2.85-.12,5.7,0,8.55,0h8.55c.75,0,1.62.26,2.22-.45.82.64,1.87.94,2.4,1.91-.08.83-.68,1-1.35,1-3-.19-6-.3-9-.68a20.58,20.58,0,0,0-6.6,0c-2,.41-4.12.11-6.15.19-.75,0-1.69-.23-1.84.94A1.58,1.58,0,0,1,388.08,26.94Z" fill="#008fbf"/><path d="M407.25,22.59c0,.3.45,1-.23.79a15.13,15.13,0,0,0-4.12-.19c-2.66,0-5.29.11-7.95-.07a3.3,3.3,0,0,0-1.61.26,8.44,8.44,0,0,1-4.17.71c-1.12-.11-1.65.38-1.57,1.5-.15-.19-.34-.34-.49-.52v-.94c-.26-.26-.15-.71-.41-1,0-.33,0-.63,0-1A2.63,2.63,0,0,1,389,21.09a95.05,95.05,0,0,1,15-.37A6.94,6.94,0,0,1,407.25,22.59Z" fill="#1e9ccb"/><path d="M403.91,20.68c-.52.67-1.31.49-2,.49-4.35-.12-8.66.26-13,.48a17.4,17.4,0,0,0-2.33.45c-.67-.52-.41-1.27-.49-1.91.34-1.54,1.69-1.57,2.78-1.57,3.23,0,6.45-.45,9.71-.38A14.88,14.88,0,0,1,403.91,20.68Z" fill="#3ea6d2"/><path d="M398.66,18.28a14,14,0,0,1-5,1c-1.57,0-3.15,0-4.73,0a4.53,4.53,0,0,0-2.81.94c-.79-.68-.34-1.58-.45-2.4.53-1.2,1.65-1.09,2.66-1.13a37.66,37.66,0,0,1,5-.3,11.09,11.09,0,0,1,4.32,1.43c.22.3.67.19,1,.45Z" fill="#58b2db"/><path d="M393.37,16.4a10.59,10.59,0,0,1-4.69.94,5.09,5.09,0,0,0-3,.49,2.17,2.17,0,0,1,.45-3.23A26.07,26.07,0,0,1,392,16c.34.38,1,0,1.39.45Z" fill="#68bde3"/><path d="M425,62.79c-.57,0-1.17.15-1.47-.52C424.09,62.31,424.65,62.27,425,62.79Z" fill="#55c8ed"/><path d="M393.34,16.4c-.53,0-1.09.08-1.43-.45C392.47,15.92,393,15.88,393.34,16.4Z" fill="#58b2db"/><path d="M419.74,60.88c-.42,0-.83,0-1-.53A1.07,1.07,0,0,1,419.74,60.88Z" fill="#64cbef"/><path d="M398.66,18.28a.93.93,0,0,1-1-.45A1,1,0,0,1,398.66,18.28Z" fill="#3ea6d2"/><path d="M393.37,37.89c-.11,0-.22,0-.33,0,0-.3-.12-.6-.15-.9A1,1,0,0,1,393.37,37.89Z" fill="#007fb3"/><path d="M392.85,37a1.12,1.12,0,0,1-.53-1A.85.85,0,0,1,392.85,37Z" fill="#007fb3"/><path d="M421.16,34.1l-.49-.48A5.6,5.6,0,0,0,421.16,34.1Z" fill="#007fb3"/><path d="M420.67,33.62c-.15-.15-.3-.34-.48-.49C420.34,33.28,420.49,33.47,420.67,33.62Z" fill="#007fb3"/><path d="M417.3,30.28l-.49-.49A2.84,2.84,0,0,1,417.3,30.28Z" fill="#0083b6"/><path d="M416.85,29.79l-.49-.49A5.66,5.66,0,0,0,416.85,29.79Z" fill="#0083b6"/><path d="M361.27,33.17a2.77,2.77,0,0,1-1,1.87c-3.15,1.2-6.23,2.55-9.27,4.05-2.88,1.46-5.92,2.63-8.62,4.5-5.18,3.53-10.5,6.86-14.7,11.59-1.92,2.14-4.32,3.82-5.59,6.49-.34.71-1,1.35-.11,2.1a13.69,13.69,0,0,1-5.33.9,11.52,11.52,0,0,1,1-4.77.63.63,0,0,0,.78-.26c6.45-8.92,15-15.37,24.57-20.7A94.07,94.07,0,0,1,360,31.4c1.42-.45,1.46-.37,1.8.79h0C361.46,32.45,361.53,32.9,361.27,33.17Z" fill="#008ebe"/><path d="M361.76,32.19c-.08-.41-.15-.79-.75-.6-2.21.79-4.5,1.46-6.64,2.4a63.36,63.36,0,0,0-9.15,4.2c-3,1.88-6.15,3.34-9,5.48-3.9,3-8,5.73-11.33,9.33-2.21,2.37-4.87,4.43-6.22,7.54A.87.87,0,0,1,318,61c-.38-.3-.23-.71-.27-1.09a19.08,19.08,0,0,1,1.92-6.67c1.35-.34,1.87-1.62,2.81-2.44a94.53,94.53,0,0,1,24-16.28c4.92-2.28,9.94-4.12,15-6,.94-.34,1-.22,1.8.3,0,.3,0,.64,0,.94C362.43,30.43,362.62,31.63,361.76,32.19Z" fill="#0597c6"/><path d="M363.18,28.85c-1.65.34-3.45.15-4.8,1.43a1.88,1.88,0,0,1-1.27.52,20.77,20.77,0,0,0-6.41,2.29c-4.13,2-8.52,3.6-12.27,6.38-1.72,1.27-3.75,2-5.47,3.33s-3.68,2.74-5.33,4.24c-2.36,2.1-5.14,3.79-6.9,6.56-.49.79-1.05.64-1.2-.33.34-1.17.49-2.44,1.43-3.38a76.17,76.17,0,0,1,15-11.66,124.56,124.56,0,0,1,22.46-10.46,36.18,36.18,0,0,1,3.94-1c.49-.11,1.35-.41,1.31.72A1.33,1.33,0,0,1,363.18,28.85Z" fill="#209dcb"/><path d="M365.58,20.68c-.15,1,.38,2-.48,2.89-1.24-.53-2.37.07-3.49.37A127.68,127.68,0,0,0,331.72,37.1a4.94,4.94,0,0,1-2.85,1c-.41,0-.79-.15-.64-.71A17.54,17.54,0,0,1,332,33.09a1.51,1.51,0,0,0,1.13-.26c3.48-2.55,7.53-4.09,11.43-5.81,6-2.63,11.93-5.14,18.34-6.49C363.82,20.34,364.72,19.89,365.58,20.68Z" fill="#61b7df"/><path d="M363.67,27.43c-.26-.38-.6-.38-1.05-.26a117.89,117.89,0,0,0-13.95,5.13c-2.29,1.05-4.35,2.48-6.83,3.15-1.61.45-2.81,1.8-4.27,2.55a64.88,64.88,0,0,0-12,8.44c-1.39,1.16-3,2-4.05,3.56-.15.23-.42.12-.6-.11,0-.15,0-.3,0-.45a3.54,3.54,0,0,0,.42-.52,2.27,2.27,0,0,1,0-.45c.3-.27.19-.72.45-.94h0c.3-.26.19-.71.49-1a3.5,3.5,0,0,1,.94-1.5,139.29,139.29,0,0,1,16.57-10.8,112.09,112.09,0,0,1,21.83-8.85c1.91-.6,2-.48,2.36,1.05A.93.93,0,0,1,363.67,27.43Z" fill="#36a4cf"/><path d="M328.23,37.44c1.31.64,2.18-.3,3.15-.86a135.05,135.05,0,0,1,23-11c3.26-1.16,6.56-2.17,9.86-3.19,1-.33.79.6.9,1.13s.08,1.09-.48,1.42c-3.15,0-6,1.39-8.89,2.29-6.83,2.18-13.17,5.48-19.5,8.81-3,1.58-5.7,3.75-8.59,5.59-.68.41-1.54,1.61-2.36,0h0c.33-.23.22-.68.52-.94h0a1.64,1.64,0,0,0,.45-.56A7.63,7.63,0,0,1,328.23,37.44Z" fill="#52afd8"/><path d="M364.53,14.9a4.35,4.35,0,0,1,.72,0c1.76.11,1.76.11,1.35,1.91,0,.15,0,.3-.08.45-3.11,1.69-6.6,2.25-9.9,3.3a117.94,117.94,0,0,0-12.3,4.47c-.94.41-2.21,1.61-3.19-.12h0a2.25,2.25,0,0,1,.49-.37.61.61,0,0,1,.34-.15.93.93,0,0,0,.6-.45A53.56,53.56,0,0,1,364.53,14.9Z" fill="#88d1f0"/><path d="M325.31,41.75c.52.72.93.19,1.38-.11,2.74-1.84,5.55-3.6,8.25-5.51A39.42,39.42,0,0,1,340,33.58c3.37-1.73,6.79-3.38,10.27-4.88,4.32-1.83,8.89-2.77,13.2-4.53.68-.27,1,.15,1.13.82s.07,1.09-.49,1.43c-.07-.68-.41-1.05-1.12-.83a69,69,0,0,0-6.79,2.21c-1.54.68-3.11,1.13-4.69,1.73A109.91,109.91,0,0,0,334,38.42a95.51,95.51,0,0,0-9.3,6.52c-.45.38-.86.79-1.35.08A8.49,8.49,0,0,1,325.31,41.75Z" fill="#45a9d4"/><path d="M365.58,20.68c-1.72-.23-3.26.64-4.83,1.05a50.74,50.74,0,0,0-8.55,2.77c-1.65.79-3.42,1.5-5.14,2.22-4.62,1.91-9.3,3.56-13.43,6.48-.6.42-1.16.53-1.65-.11h0a1.06,1.06,0,0,0,.49-.49h0A1,1,0,0,0,333,32a14,14,0,0,1,2.89-2.81,174.6,174.6,0,0,1,25.62-10c1.5-.42,3-1.17,4.57-.49C366,19.44,366.26,20.19,365.58,20.68Z" fill="#71c1e5"/><path d="M366.07,18.77a88.08,88.08,0,0,0-17.14,5.43c-2.73,1.17-5.74,1.77-8.25,3.57-1.16.82-2.77,1-4.05,1.83-.3.19-.6-.07-.79-.33A20.73,20.73,0,0,1,341.13,25c1.05.71,2.06.11,2.85-.34a64.42,64.42,0,0,1,11.55-4.35c1.92-.56,3.79-1.16,5.7-1.8a33.41,33.41,0,0,1,5.33-1.2C366.52,17.87,366.63,18.43,366.07,18.77Z" fill="#7bc8ea"/><path d="M322,47.49a1,1,0,0,1-.45.94A.9.9,0,0,1,322,47.49Z" fill="#209dcb"/><path d="M322.46,46.55a1,1,0,0,1-.49,1C322,47.12,322.08,46.74,322.46,46.55Z" fill="#209dcb"/><path d="M325.83,40.82a.89.89,0,0,1-.52.93A1,1,0,0,1,325.83,40.82Z" fill="#45a9d4"/><path d="M341.62,24.62a5.21,5.21,0,0,1-.49.37A.5.5,0,0,1,341.62,24.62Z" fill="#7bc8ea"/><path d="M342.56,24a.6.6,0,0,1-.6.45C342.14,24.32,342.37,24.17,342.56,24Z" fill="#7bc8ea"/><path d="M326.28,40.25l-.45.57Z" fill="#45a9d4"/><path d="M332.51,32.6a.65.65,0,0,1-.49.49A.66.66,0,0,1,332.51,32.6Z" fill="#61b7df"/><path d="M321.48,48.88a5.79,5.79,0,0,0-.41.52C321.18,49.25,321.33,49.07,321.48,48.88Z" fill="#209dcb"/><path d="M333,32a.6.6,0,0,1-.49.56A2.24,2.24,0,0,0,333,32Z" fill="#61b7df"/><path d="M363.22,118.75a3.87,3.87,0,0,1,.94,2.43c.26.68.49,1.47-.08,2s-1.35.15-1.95-.22a3.68,3.68,0,0,0-1.8-.6,30.36,30.36,0,0,1-13.53-3.83c-6.19-3.37-12.27-6.86-17.18-12a46.75,46.75,0,0,1-8.33-11.85,63,63,0,0,1-3.15-7.69c-.15-.48-.3-.93-1-.67a1,1,0,0,1-.45-1,2.82,2.82,0,0,0-1.46-2.85c2.4.57,4.95.38,7.23,1.43-.48.6-1,1.12-.6,2.1a51.59,51.59,0,0,0,12.6,18.9,63.1,63.1,0,0,0,9.34,7.39,41.51,41.51,0,0,0,7.5,3.64c3,1.2,6,2.55,9.3,2.92A7.49,7.49,0,0,0,363.22,118.75Z" fill="#007eb3"/><path d="M317.21,86.27a5.54,5.54,0,0,1,0-.71.66.66,0,0,1,.6-.64c.45-.08.49.22.57.56.26,1,.6,2,.86,3a37.9,37.9,0,0,0,4,8.44,51.06,51.06,0,0,0,10.43,12.6c2.14,1.88,4.8,2.63,6.86,4.43.64.56,1.35.9,1.8,1.76.49,1,1.95,1.35,2.81,1.46,2,.3,3.38,1.65,5,2.52.34.18.6.52,1,.56,2.89.26,5.59,1.61,8.55,1.46,1.17-.07,2.37-.19,3.19,1,.38.56,1,.34,1.16-.41a11.51,11.51,0,0,0,.08-1.2c.15.19.34.34.49.52.15.79.3,1.58.45,2.4.41,1.32.6,2.4-1.47,2-8.17-1.5-16.08-3.75-23.17-8.29-4.47-2.85-8.89-5.81-12.42-9.86-1.35-1.54-2.06-3.6-4.12-4.47a16.16,16.16,0,0,1-3.3-6.18c-1-3-2.4-6-2.93-9.15-.41-.38,0-1-.48-1.43Z" fill="#0082b6"/><path d="M323.88,103.52c.11-.45.3-1.16.83-.53,1.08,1.32,2.7,2.18,3.18,4.05.23.87,1.39,1,1.95,1.69a26.85,26.85,0,0,0,5,4.65c.19.15.3.45.49.49,3.07,1,5.14,3.56,7.87,5.1a12.05,12.05,0,0,0,2.18.83c2.59.9,4.8,2.85,7.73,2.88,3.45,1.88,7.42,1.8,11.1,3,1.31.41.67-1,.9-1.62a8.16,8.16,0,0,1,1,3.83c-1.54,1.09-3.26.67-4.84.37A61.66,61.66,0,0,1,344.66,123a46.79,46.79,0,0,1-5.59-3.15,2.55,2.55,0,0,0-2.21-.64c-4.5-3.9-8.63-8.1-11.52-13.39-.15-.15-.3-.33-.48-.48s-.34-.64-.49-.94-.3-.34-.49-.49A.71.71,0,0,0,323.88,103.52Z" fill="#0087bb"/><path d="M336.82,119.31c.52-.6.6-1.2,1.84-.34a36.16,36.16,0,0,0,5.81,3.41,78.89,78.89,0,0,0,9,3.49c4.09,1.28,8.21,2.36,12.56,2.06a13.87,13.87,0,0,1,.9,5.29,50,50,0,0,1-12.37-3.15,61.1,61.1,0,0,1-15.27-8.59,5.23,5.23,0,0,1-.6-.71c-.45-.37-1-.6-1.42-1h0a1.73,1.73,0,0,0-.45-.49Z" fill="#008ec2"/><path d="M337.31,119.76a1.45,1.45,0,0,1,1.42,1A1.44,1.44,0,0,1,337.31,119.76Z" fill="#0087bb"/><path d="M317.21,86.76c.56.33.45.9.48,1.42C317.09,87.84,317.21,87.28,317.21,86.76Z" fill="#007eb3"/><path d="M324.86,105.43c.15.15.3.34.48.49A5.6,5.6,0,0,0,324.86,105.43Z" fill="#0082b6"/><path d="M336.82,119.31l.49.49A2.84,2.84,0,0,0,336.82,119.31Z" fill="#0087bb"/><path d="M323.92,104a5.66,5.66,0,0,0,.49.49A2.84,2.84,0,0,1,323.92,104Z" fill="#0082b6"/><path d="M385.23,131.27v-.49c.34-.33.19-.9.57-1.23,3.07-1.92,6.64-2.59,10-3.9,5-2,9.23-4.88,13.58-7.84,5.4-3.68,9.64-8.48,13.57-13.54a51.62,51.62,0,0,0,5.82-9.79,62.8,62.8,0,0,0,3.48-8.32c.34-1.13.38-2-.56-2.78,1.35-.82,3-.3,4.35-.86-1.35,2.14-1.09,4.72-1.87,7-1.05,3-1.5,6.11-3.38,8.74a18.4,18.4,0,0,0-3.64,5.62,29.44,29.44,0,0,1-5.28,7c-2.85,3-5.93,5.78-9,8.51-4,3.49-8.63,5.93-13.31,8.33A36.45,36.45,0,0,1,387,131.53C386.4,131.61,385.76,131.83,385.23,131.27Z" fill="#0093c7"/><path d="M385.23,131.27c3.94-.19,7.62-1.57,11.37-2.62,1.46-.42,2.62-1.62,4.12-2.18,2.25-.82,4.13-2.44,6.34-3.49a15.43,15.43,0,0,0,3.26-2.25c1.84-1.46,3.42-3.22,5.25-4.65,2.14-1.65,3.75-3.82,5.7-5.62s3.72-3.38,4.65-5.63c1.05-2.51,3.27-4.42,3.72-7.2,0-.26.26-.67.67-.41s.41.64.45,1h0c-.34.22-.19.71-.49,1a2.27,2.27,0,0,1,0,.45,5,5,0,0,0-.45.49,1.71,1.71,0,0,1,0,.45,2.87,2.87,0,0,0-.45.53v.45a5,5,0,0,0-.45.48,1.71,1.71,0,0,1,0,.45,5,5,0,0,0-.45.49,1.71,1.71,0,0,1,0,.45c-.15.15-.3.34-.45.49h0c-.3.26-.22.67-.48.94h0a5,5,0,0,0-.45.48,1.71,1.71,0,0,1,0,.45c-.15.15-.3.34-.45.49h0a5.66,5.66,0,0,0-.49.49c-.37,1.69-1.69,2.89-2.66,4.16a58.73,58.73,0,0,1-18.45,15.49,57.29,57.29,0,0,1-17.63,6.26,14.8,14.8,0,0,0-2.47.87A3.68,3.68,0,0,1,385.23,131.27Z" fill="#0097ca"/><path d="M430.27,99.21a.94.94,0,0,1,.49-1A1.11,1.11,0,0,1,430.27,99.21Z" fill="#0093c7"/><path d="M427.39,104.94c0-.41.07-.75.48-.93A1.05,1.05,0,0,1,427.39,104.94Z" fill="#0093c7"/><path d="M426,106.89a5.6,5.6,0,0,1,.49-.48A3.18,3.18,0,0,0,426,106.89Z" fill="#0093c7"/><path d="M426.41,106.37c.15-.15.3-.34.45-.49A5.45,5.45,0,0,1,426.41,106.37Z" fill="#0093c7"/><path d="M426.9,105.43c.15-.15.3-.34.45-.49C427.2,105.09,427.05,105.28,426.9,105.43Z" fill="#0093c7"/><path d="M427.84,104c.15-.15.3-.34.45-.49A2.08,2.08,0,0,1,427.84,104Z" fill="#0093c7"/><path d="M428.32,103c.15-.15.3-.34.45-.49C428.62,102.69,428.47,102.88,428.32,103Z" fill="#0093c7"/><path d="M428.81,102.09l.45-.48C429.11,101.76,429,101.91,428.81,102.09Z" fill="#0093c7"/><path d="M429.3,101.16c.15-.19.3-.34.45-.53A6.22,6.22,0,0,0,429.3,101.16Z" fill="#0093c7"/><path d="M429.79,100.18c.15-.15.3-.34.45-.49A5.45,5.45,0,0,0,429.79,100.18Z" fill="#0093c7"/><path d="M363.22,118.75c-.19,1.12-.9,1.16-1.76.9-2.78-.87-5.63-1.2-8.33-2.48s-5.88-2.17-8.55-3.82-5.36-3.12-7.57-5.26c-2.85-2.73-6-5.28-8.18-8.58-2.4-3.6-5.36-6.9-6.45-11.29-.19-.83-.82-1.54-1.09-2.36-.56-1.62-.6-1.62,1.28-2,2.47.19,4.76,1.24,7.12,1.87,1.92.83,3.83,1.62,5.74,2.44,2.7,1.61,5.4,3.26,8.1,4.88A82.61,82.61,0,0,1,355,104c1.46,2.06,2.89,4.12,4.35,6.22a24.16,24.16,0,0,0,2.36,4.32C362,116,363.15,117.17,363.22,118.75Z" fill="#0079af"/><path d="M358.5,38l-1.13,2.32c-1,.75-1.35,2.1-2.36,2.81-4.88,1.58-8.89,4.73-13.24,7.24a17.33,17.33,0,0,0-3.6,3.08,52.91,52.91,0,0,1-5.36,5,1.46,1.46,0,0,0-.64,2,8.22,8.22,0,0,1-3.45,1.39c-.26.26-.68.18-.94.41-.15,0-.34,0-.49.07-.41.42-1.05,0-1.46.45a1.78,1.78,0,0,1-.45.08c-1.91.11-1.84-.9-1-2a33,33,0,0,1,3.75-4c2.25-2.14,4.35-4.43,6.52-6.64a9.82,9.82,0,0,1,1.65-1.35c6-3.86,12.27-7.31,18.49-10.8C355.91,37.44,357.22,36.24,358.5,38Z" fill="#0082b6"/><path d="M332.13,60.47c-1.69-.42-1.84-.6-.67-1.58a81.84,81.84,0,0,0,6.45-6A12.66,12.66,0,0,1,343.27,49a2.21,2.21,0,0,0,1-.64,18.42,18.42,0,0,1,6.38-4c1.31-.6,2.7-1.58,4.35-1.28a40,40,0,0,1-6.71,7.28,16.52,16.52,0,0,0-2.4,2.25c-2.07,1.46-4.13,2.89-6.23,4.35-2.21,1.16-4.46,2.29-6.68,3.45A5.91,5.91,0,0,1,332.13,60.47Z" fill="#007eb2"/><path d="M407.77,93.51c2.07-1.32,4.13-2.67,6.23-4a5.21,5.21,0,0,0,.49-.37v0c1.68-.37,3-1.65,4.72-2,.26-.27.71-.15,1-.45a.59.59,0,0,1,.37-.12c1.31-.11,1,.79.71,1.39A54.53,54.53,0,0,1,410,104.87a57.27,57.27,0,0,1-16.65,11.63,4.88,4.88,0,0,1-2,.75c-.93,0-1.87,0-1.38-1.43.37-1.69,1.61-3,2.06-4.65a47.63,47.63,0,0,0,3.41-5.25c.94-1.09,1.88-2.14,2.78-3.26a52.62,52.62,0,0,1,8.92-8.48A5.25,5.25,0,0,0,407.77,93.51Z" fill="#0079af"/><path d="M358.5,38c-1.35-.72-2.37,0-3.49.63A83.81,83.81,0,0,1,345.63,44c-3.52,1.53-6.22,4.23-9.67,5.85-1.43.67-2.55,2.32-3.68,3.63-2,2.37-4.5,4.24-6.45,6.64-.34.41-.71.79-1.09,1.2-1,1.09-.11,1.28.6,1.62a6,6,0,0,1-3.37.9c-.53,0-1.13.07-1.43-.3,1.35-4.39,5.14-6.76,7.8-10a22.43,22.43,0,0,1,5.07-4.2,26.11,26.11,0,0,0,5.32-4.2c.26-.3.49-.75.83-.82,2.77-.72,4.65-3,7.24-4a21.06,21.06,0,0,0,6-3.07,2.86,2.86,0,0,1,1.62-.23,2,2,0,0,0,2-1c.87-1.39,2.48-.87,3.68-1.39l.11.45A6.25,6.25,0,0,1,358.5,38Z" fill="#0088b9"/><path d="M325.83,62.79c.34-.56.9-.45,1.46-.45A1.54,1.54,0,0,1,325.83,62.79Z" fill="#0088b9"/><path d="M327.74,62.27a1,1,0,0,1,.94-.41A.91.91,0,0,1,327.74,62.27Z" fill="#0088b9"/><path d="M431.62,83.38c1.88.23,2.07.3,1.47,1.84-.83,2-.9,4.35-2.4,6.11a7,7,0,0,0-.9,2.44c-1.32,3.64-4,6.49-5.59,10a13.75,13.75,0,0,1-2.89,3.68c-2.55,2.48-4.72,5.29-7.42,7.65a30.79,30.79,0,0,1-3.53,2.63c-1.39,1-2.77,2-4.2,3a45.45,45.45,0,0,1-10.69,5.67l-9.82,3.48a.69.69,0,0,1,0-1c0-.64-.15-1.35.41-1.91,1.13-1.39,2.85-1.8,4.39-2.25,12.68-3.83,22.46-11.63,30.34-22a51.72,51.72,0,0,0,8.66-17.14c.19-.67.34-1.2-.22-1.72C429.94,83.16,430.84,83.46,431.62,83.38Z" fill="#008ec2"/><path d="M429.26,83.87c.56.07,1.46-.15,1,1-.75,1.84-.71,3.94-2,5.55-.49.6-.38,1.39-.64,2a23.59,23.59,0,0,1-3.41,6c-1.32,1.61-2,3.71-3.42,5.36a82.2,82.2,0,0,1-10.2,10.66c-2.06,1.72-4.38,3.07-6.45,4.76-1.05.86-2.51,1.16-3.71,2a32.94,32.94,0,0,1-9.86,4c-1.47.41-2.93,1.2-4.47,1.72,0-.3.08-.63.12-.93.26-.3.18-.72.37-1a5.54,5.54,0,0,1,1-3.33,2.48,2.48,0,0,0,2.21.6A59.45,59.45,0,0,0,398,119a72.81,72.81,0,0,0,8.32-5.1c2.4-1.65,4.2-3.86,6.34-5.74A48.3,48.3,0,0,0,424.24,92a68.66,68.66,0,0,0,3.11-7.69C427.87,83.72,428.59,83.91,429.26,83.87Z" fill="#0087bb"/><path d="M427.35,84.36a1.37,1.37,0,0,1,0,2.1,10.22,10.22,0,0,0-2,4.72c-.38,1.69-1.69,3-2.4,4.58-1.46,3.26-3.83,5.92-5.85,8.85-.56.82-1.61,1.27-2.29,2-1.42,1.58-3.15,2.89-4.54,4.47-2.7,3.11-6.26,4.87-9.67,6.9a5.72,5.72,0,0,0-1.39.9,3.7,3.7,0,0,1-3.11,1.38,4.53,4.53,0,0,0-2.59,1.09c-1.28.9-2.81,1-4.16,1.61-1,.42-1.88,0-1.8-1.38a3.63,3.63,0,0,1,.9-2.44c2.43.34,4.54-.75,6.6-1.69a38.47,38.47,0,0,0,8.62-5c3.68-3,7.65-5.74,10.69-9.72,2.29-3,3.64-6.6,6.38-9.37,1.27-1.28,1.38-3.6,2.66-5.22.6-.75-.26-1.65-.45-2.47a5.43,5.43,0,0,1,2.89-.94c.3-.22.71-.15,1-.41A1,1,0,0,0,427.35,84.36Z" fill="#0082b6"/><path d="M423,85.74c1.69,1.17,1.91,2.25.64,3.57a3.91,3.91,0,0,0-1.54,3.3c.08.9-.71,1.38-1.27,1.91-1.47,1.39-2.78,2.85-3,5a1.27,1.27,0,0,1-.41.82c-2.44,1.8-3.79,4.46-5.7,6.71-.9,1.09-2.22,1.5-3.23,2.37-1.24,1-2.85,1.72-3.56,3.34-.08.18-.38.3-.6.37-3,1.35-5.7,3.34-8.63,4.91-1.76,1-3.82,1.28-5.7,2.1-.67.3-1.16-.33-1.46-.93,0-.3,0-.57,0-.87.56-.78.67-1.8,1.42-2.47.19,1.12.9,1.27,1.77.86,4.05-2.1,8.36-3.82,11.85-6.86,2.06-1.8,4.23-3.45,6.15-5.48a39.37,39.37,0,0,0,4.91-5.7c1.54-2.4,3.19-4.72,4.61-7.16.75-1.31.53-3,1.8-4.09.15-.15-.22-.52-.49-.71,0-.15.08-.26.12-.41C421.42,86.08,422.21,85.93,423,85.74Z" fill="#007eb2"/><path d="M426.86,84.39a1,1,0,0,1-1,.42A1.11,1.11,0,0,1,426.86,84.39Z" fill="#0087bb"/><path d="M385.68,128.83a8,8,0,0,0,0,1,1,1,0,0,1-.49,1C385.23,130.11,385.05,129.36,385.68,128.83Z" fill="#0097ca"/><path d="M386.62,125a.94.94,0,0,1-.37,1A.9.9,0,0,1,386.62,125Z" fill="#008ec2"/><path d="M386.66,23.08a.93.93,0,0,1,.41,1A1,1,0,0,1,386.66,23.08Z" fill="#3ea6d2"/><path d="M361.27,33.17a.94.94,0,0,1,.49-1A1,1,0,0,1,361.27,33.17Z" fill="#0597c6"/><path d="M389.55,30.77a1,1,0,0,1,.45.93A1,1,0,0,1,389.55,30.77Z" fill="#008aba"/><path d="M390,31.7h.48v1c-.18-.15-.33-.34-.52-.49C390,32,390,31.85,390,31.7Z" fill="#008aba"/><path d="M420.19,86.76a1,1,0,0,1-1,.45A1.07,1.07,0,0,1,420.19,86.76Z" fill="#007eb2"/><path d="M414.49,89.16a.53.53,0,0,1-.49.37Z" fill="#69cdf0"/></svg>